<svg xmlns="http://www.w3.org/2000/svg" viewBox="0 0 200 200"><defs><style>.cls-1{opacity:0.5;}.cls-2{fill:none;stroke:lime;stroke-miterlimit:10;stroke-width:0.5px;}</style></defs><title>white - Artboard 66</title><g id="Main"><path d="M100,163a63,63,0,0,0,58.05-87.52,25,25,0,1,1-35.11-34.15A63,63,0,1,0,100,163Zm18.5-56.5a13,13,0,1,1-13,13A13,13,0,0,1,118.5,106.5ZM81,69A13,13,0,1,1,68,82,13,13,0,0,1,81,69Z"/></g><g id="TEMPLATE" class="cls-1"><rect class="cls-2" x="37.5" y="37.5" width="125" height="125"/><rect class="cls-2" x="62.5" y="62.5" width="75" height="75"/><line class="cls-2" x1="200" y1="100" y2="100"/><line class="cls-2" x1="100" x2="100" y2="200"/></g></svg>