<svg xmlns="http://www.w3.org/2000/svg" viewBox="0 0 200 200"><defs><style>.cls-1{opacity:0.5;}.cls-2{fill:none;stroke:lime;stroke-miterlimit:10;stroke-width:0.5px;}</style></defs><title>white - Artboard 27</title><g id="Main"><path d="M50,167.5a5,5,0,0,0,5-5V42.5h58a5,5,0,0,0,0-10H50a5,5,0,0,0-5,5v125A5,5,0,0,0,50,167.5Z"/><path d="M88,157.5a5,5,0,0,0,0,10h62a5,5,0,0,0,0-10Z"/><path d="M119,69.5a31,31,0,1,0,31,31A31,31,0,0,0,119,69.5Zm0,52a21,21,0,1,1,21-21A21,21,0,0,1,119,121.5Z"/></g><g id="TEMPLATE" class="cls-1"><rect class="cls-2" x="37.5" y="37.5" width="125" height="125"/><rect class="cls-2" x="62.5" y="62.5" width="75" height="75"/><line class="cls-2" x1="200" y1="100" y2="100"/><line class="cls-2" x1="100" x2="100" y2="200"/></g></svg>