<svg xmlns="http://www.w3.org/2000/svg" viewBox="0 0 200 200"><defs><style>.cls-1{opacity:0.5;}.cls-2{fill:none;stroke:lime;stroke-miterlimit:10;stroke-width:0.5px;}</style></defs><title>white - Artboard 37</title><g id="Main"><path d="M84,166A5,5,0,0,0,91,159L42,110A5,5,0,0,0,35,117Z"/><path d="M38.5,92.5A5,5,0,0,0,42,91L91,42A5,5,0,0,0,84,35L35,84A5,5,0,0,0,38.5,92.5Z"/><path d="M163,168a5,5,0,0,0,5-5V38a5,5,0,0,0-10,0V163A5,5,0,0,0,163,168Z"/><path d="M121,38V163a5,5,0,0,0,10,0V38a5,5,0,0,0-10,0Z"/></g><g id="TEMPLATE" class="cls-1"><rect class="cls-2" x="37.5" y="37.5" width="125" height="125"/><rect class="cls-2" x="62.5" y="62.5" width="75" height="75"/><line class="cls-2" x1="200" y1="100" y2="100"/><line class="cls-2" x1="100" x2="100" y2="200"/><rect class="cls-2" x="37.5" y="37.5" width="125" height="125"/><rect class="cls-2" x="62.5" y="62.5" width="75" height="75"/><line class="cls-2" x1="200" y1="100" y2="100"/><line class="cls-2" x1="100" x2="100" y2="200"/></g></svg>