<svg xmlns="http://www.w3.org/2000/svg" viewBox="0 0 200 200"><defs><style>.cls-1{opacity:0.5;}.cls-2{fill:none;stroke:lime;stroke-miterlimit:10;stroke-width:0.5px;}</style></defs><title>white - Artboard 36</title><g id="Main"><path d="M34,117l49,49A5,5,0,0,0,90,159L41,110A5,5,0,0,0,34,117Z"/><path d="M34,78l49,49A5,5,0,0,0,90,120L41,71A5,5,0,0,0,34,78Z"/><path d="M83,91A5,5,0,0,0,90,84L41,35A5,5,0,0,0,34,42Z"/><path d="M167,38a5,5,0,0,0-10,0V163a5,5,0,0,0,10,0Z"/><path d="M130,163V38a5,5,0,0,0-10,0V163a5,5,0,0,0,10,0Z"/></g><g id="TEMPLATE" class="cls-1"><rect class="cls-2" x="37.5" y="37.5" width="125" height="125"/><rect class="cls-2" x="62.5" y="62.5" width="75" height="75"/><line class="cls-2" x1="200" y1="100" y2="100"/><line class="cls-2" x1="100" x2="100" y2="200"/></g></svg>