<svg xmlns="http://www.w3.org/2000/svg" viewBox="0 0 200 200"><defs><style>.cls-1{opacity:0.5;}.cls-2{fill:none;stroke:lime;stroke-miterlimit:10;stroke-width:0.5px;}</style></defs><title>white - Artboard 23</title><g id="Main"><path d="M167.5,37.5a5,5,0,0,0-5-5H37.5a5,5,0,0,0-5,5v125a5,5,0,0,0,5,5h125a5,5,0,0,0,0-10H42.5V42.5h120A5,5,0,0,0,167.5,37.5Z"/><path d="M64.5,99.5a36,36,0,1,0,36-36A36,36,0,0,0,64.5,99.5Zm62,0a26,26,0,1,1-26-26A26,26,0,0,1,126.5,99.5Z"/></g><g id="TEMPLATE" class="cls-1"><rect class="cls-2" x="37.5" y="37.5" width="125" height="125"/><rect class="cls-2" x="62.5" y="62.5" width="75" height="75"/><line class="cls-2" x1="200" y1="100" y2="100"/><line class="cls-2" x1="100" x2="100" y2="200"/></g></svg>