<svg xmlns="http://www.w3.org/2000/svg" viewBox="0 0 200 200"><defs><style>.cls-1{opacity:0.5;}.cls-2{fill:none;stroke:lime;stroke-miterlimit:10;stroke-width:0.5px;}</style></defs><title>white - Artboard 9</title><g id="Main"><path d="M70,150.5a5,5,0,0,0,5,5,80.09,80.09,0,0,0,80-80v-25a5,5,0,0,0-10,0v25a70.08,70.08,0,0,1-70,70A5,5,0,0,0,70,150.5Z"/><path d="M50,155.5a5,5,0,0,0,5-5v-38a58.07,58.07,0,0,1,58-58,5,5,0,0,0,0-10,68.07,68.07,0,0,0-68,68v38A5,5,0,0,0,50,155.5Z"/><path d="M112.51,74.92l-38,37a5,5,0,1,0,7,7.16l38-37a5,5,0,0,0-7-7.16Z"/></g><g id="TEMPLATE" class="cls-1"><rect class="cls-2" x="37.5" y="37.5" width="125" height="125"/><rect class="cls-2" x="62.5" y="62.5" width="75" height="75"/><line class="cls-2" x1="200" y1="100" y2="100"/><line class="cls-2" x1="100" x2="100" y2="200"/></g></svg>